<svg width="49" height="75" viewBox="0 0 49 75" fill="none" xmlns="http://www.w3.org/2000/svg">
<g clip-path="url(#clip0_205_1977)">
<path d="M7.04811 66.08H8.91411C9.75811 66.08 10.4521 66.25 10.9961 66.59C11.5441 66.926 11.9501 67.392 12.2141 67.988C12.4781 68.584 12.6101 69.266 12.6101 70.034C12.6101 70.806 12.4781 71.49 12.2141 72.086C11.9501 72.682 11.5461 73.15 11.0021 73.49C10.4581 73.83 9.76211 74 8.91411 74H7.04811V66.08ZM8.06811 67.016V73.064H8.83011C9.45411 73.064 9.96411 72.934 10.3601 72.674C10.7561 72.414 11.0481 72.058 11.2361 71.606C11.4281 71.15 11.5261 70.63 11.5301 70.046C11.5301 69.458 11.4361 68.938 11.2481 68.486C11.0601 68.03 10.7661 67.672 10.3661 67.412C9.96611 67.148 9.45411 67.016 8.83011 67.016H8.06811ZM14.5399 71.75C14.5439 72.046 14.6079 72.316 14.7319 72.56C14.8559 72.804 15.0399 72.998 15.2839 73.142C15.5319 73.286 15.8359 73.358 16.1959 73.358C16.4999 73.358 16.7579 73.314 16.9699 73.226C17.1859 73.134 17.3619 73.026 17.4979 72.902C17.6339 72.774 17.7319 72.66 17.7919 72.56L18.3019 73.19C18.1699 73.382 18.0079 73.55 17.8159 73.694C17.6279 73.838 17.3979 73.948 17.1259 74.024C16.8539 74.104 16.5219 74.144 16.1299 74.144C15.6019 74.144 15.1439 74.032 14.7559 73.808C14.3719 73.58 14.0759 73.266 13.8679 72.866C13.6599 72.462 13.5559 72 13.5559 71.48C13.5559 71 13.6539 70.568 13.8499 70.184C14.0459 69.796 14.3299 69.49 14.7019 69.266C15.0779 69.042 15.5299 68.93 16.0579 68.93C16.5419 68.93 16.9619 69.032 17.3179 69.236C17.6779 69.436 17.9559 69.72 18.1519 70.088C18.3519 70.456 18.4519 70.896 18.4519 71.408C18.4519 71.44 18.4499 71.498 18.4459 71.582C18.4419 71.662 18.4379 71.718 18.4339 71.75H14.5399ZM17.4559 70.964C17.4519 70.8 17.4039 70.62 17.3119 70.424C17.2239 70.228 17.0799 70.06 16.8799 69.92C16.6799 69.78 16.4099 69.71 16.0699 69.71C15.7179 69.71 15.4339 69.778 15.2179 69.914C15.0059 70.05 14.8499 70.216 14.7499 70.412C14.6499 70.604 14.5919 70.788 14.5759 70.964H17.4559ZM21.4526 68.93C21.7086 68.93 21.9466 68.956 22.1666 69.008C22.3906 69.06 22.5826 69.122 22.7426 69.194C22.9066 69.266 23.0226 69.33 23.0906 69.386L22.6766 70.046C22.5966 69.974 22.4526 69.894 22.2446 69.806C22.0366 69.714 21.8046 69.668 21.5486 69.668C21.2686 69.668 21.0306 69.724 20.8346 69.836C20.6386 69.944 20.5406 70.102 20.5406 70.31C20.5406 70.518 20.6406 70.684 20.8406 70.808C21.0446 70.928 21.3166 71.028 21.6566 71.108C21.9286 71.172 22.1826 71.258 22.4186 71.366C22.6586 71.474 22.8526 71.624 23.0006 71.816C23.1486 72.004 23.2226 72.256 23.2226 72.572C23.2226 72.86 23.1626 73.106 23.0426 73.31C22.9226 73.51 22.7606 73.672 22.5566 73.796C22.3526 73.916 22.1246 74.004 21.8726 74.06C21.6206 74.116 21.3646 74.144 21.1046 74.144C20.8006 74.144 20.5266 74.112 20.2826 74.048C20.0386 73.988 19.8326 73.916 19.6646 73.832C19.5006 73.744 19.3806 73.668 19.3046 73.604L19.7186 72.86C19.8226 72.96 19.9926 73.066 20.2286 73.178C20.4686 73.29 20.7406 73.346 21.0446 73.346C21.3806 73.346 21.6526 73.276 21.8606 73.136C22.0686 72.992 22.1726 72.806 22.1726 72.578C22.1726 72.406 22.1226 72.268 22.0226 72.164C21.9226 72.06 21.7886 71.976 21.6206 71.912C21.4526 71.848 21.2686 71.792 21.0686 71.744C20.8766 71.7 20.6886 71.642 20.5046 71.57C20.3246 71.498 20.1586 71.406 20.0066 71.294C19.8586 71.178 19.7406 71.038 19.6526 70.874C19.5646 70.706 19.5206 70.51 19.5206 70.286C19.5206 70.002 19.6106 69.76 19.7906 69.56C19.9706 69.356 20.2066 69.2 20.4986 69.092C20.7906 68.984 21.1086 68.93 21.4526 68.93ZM26.2807 68.93C26.5367 68.93 26.7747 68.956 26.9947 69.008C27.2187 69.06 27.4107 69.122 27.5707 69.194C27.7347 69.266 27.8507 69.33 27.9187 69.386L27.5047 70.046C27.4247 69.974 27.2807 69.894 27.0727 69.806C26.8647 69.714 26.6327 69.668 26.3767 69.668C26.0967 69.668 25.8587 69.724 25.6627 69.836C25.4667 69.944 25.3687 70.102 25.3687 70.31C25.3687 70.518 25.4687 70.684 25.6687 70.808C25.8727 70.928 26.1447 71.028 26.4847 71.108C26.7567 71.172 27.0107 71.258 27.2467 71.366C27.4867 71.474 27.6807 71.624 27.8287 71.816C27.9767 72.004 28.0507 72.256 28.0507 72.572C28.0507 72.86 27.9907 73.106 27.8707 73.31C27.7507 73.51 27.5887 73.672 27.3847 73.796C27.1807 73.916 26.9527 74.004 26.7007 74.06C26.4487 74.116 26.1927 74.144 25.9327 74.144C25.6287 74.144 25.3547 74.112 25.1107 74.048C24.8667 73.988 24.6607 73.916 24.4927 73.832C24.3287 73.744 24.2087 73.668 24.1327 73.604L24.5467 72.86C24.6507 72.96 24.8207 73.066 25.0567 73.178C25.2967 73.29 25.5687 73.346 25.8727 73.346C26.2087 73.346 26.4807 73.276 26.6887 73.136C26.8967 72.992 27.0007 72.806 27.0007 72.578C27.0007 72.406 26.9507 72.268 26.8507 72.164C26.7507 72.06 26.6167 71.976 26.4487 71.912C26.2807 71.848 26.0967 71.792 25.8967 71.744C25.7047 71.7 25.5167 71.642 25.3327 71.57C25.1527 71.498 24.9867 71.406 24.8347 71.294C24.6867 71.178 24.5687 71.038 24.4807 70.874C24.3927 70.706 24.3487 70.51 24.3487 70.286C24.3487 70.002 24.4387 69.76 24.6187 69.56C24.7987 69.356 25.0347 69.2 25.3267 69.092C25.6187 68.984 25.9367 68.93 26.2807 68.93ZM29.9149 71.75C29.9189 72.046 29.9829 72.316 30.1069 72.56C30.2309 72.804 30.4149 72.998 30.6589 73.142C30.9069 73.286 31.2109 73.358 31.5709 73.358C31.8749 73.358 32.1329 73.314 32.3449 73.226C32.5609 73.134 32.7369 73.026 32.8729 72.902C33.0089 72.774 33.1069 72.66 33.1669 72.56L33.6769 73.19C33.5449 73.382 33.3829 73.55 33.1909 73.694C33.0029 73.838 32.7729 73.948 32.5009 74.024C32.2289 74.104 31.8969 74.144 31.5049 74.144C30.9769 74.144 30.5189 74.032 30.1309 73.808C29.7469 73.58 29.4509 73.266 29.2429 72.866C29.0349 72.462 28.9309 72 28.9309 71.48C28.9309 71 29.0289 70.568 29.2249 70.184C29.4209 69.796 29.7049 69.49 30.0769 69.266C30.4529 69.042 30.9049 68.93 31.4329 68.93C31.9169 68.93 32.3369 69.032 32.6929 69.236C33.0529 69.436 33.3309 69.72 33.5269 70.088C33.7269 70.456 33.8269 70.896 33.8269 71.408C33.8269 71.44 33.8249 71.498 33.8209 71.582C33.8169 71.662 33.8129 71.718 33.8089 71.75H29.9149ZM32.8309 70.964C32.8269 70.8 32.7789 70.62 32.6869 70.424C32.5989 70.228 32.4549 70.06 32.2549 69.92C32.0549 69.78 31.7849 69.71 31.4449 69.71C31.0929 69.71 30.8089 69.778 30.5929 69.914C30.3809 70.05 30.2249 70.216 30.1249 70.412C30.0249 70.604 29.9669 70.788 29.9509 70.964H32.8309ZM36.0056 74H34.9676V69.074H36.0056V69.926H35.9756C35.9956 69.822 36.0696 69.692 36.1976 69.536C36.3256 69.38 36.5016 69.24 36.7256 69.116C36.9496 68.992 37.2176 68.93 37.5296 68.93C37.7576 68.93 37.9576 68.962 38.1296 69.026C38.3056 69.086 38.4296 69.146 38.5016 69.206L38.0756 70.07C38.0196 70.014 37.9216 69.958 37.7816 69.902C37.6416 69.842 37.4676 69.812 37.2596 69.812C36.9956 69.812 36.7696 69.894 36.5816 70.058C36.3936 70.222 36.2496 70.42 36.1496 70.652C36.0536 70.88 36.0056 71.092 36.0056 71.288V74ZM38.8252 69.074H39.7912V67.052H40.8292V69.074H42.0952V69.968H40.8292V72.404C40.8292 72.692 40.8792 72.904 40.9792 73.04C41.0832 73.176 41.2212 73.244 41.3932 73.244C41.5452 73.244 41.6632 73.216 41.7472 73.16C41.8312 73.104 41.8812 73.066 41.8972 73.046L42.3112 73.814C42.2872 73.834 42.2232 73.872 42.1192 73.928C42.0152 73.984 41.8812 74.034 41.7172 74.078C41.5532 74.122 41.3612 74.144 41.1412 74.144C40.7572 74.144 40.4352 74.028 40.1752 73.796C39.9192 73.56 39.7912 73.188 39.7912 72.68V69.968H38.8252V69.074Z" fill="#391713"/>
<rect width="49" height="62" rx="24.5" fill="#F3E9B5"/>
<path d="M30.82 26.7625C31.6127 26.2447 32.5224 25.9361 33.4651 25.8655C35.0104 25.7306 36.5457 26.2185 37.7333 27.222C38.9209 28.2254 39.6637 29.6623 39.7981 31.2164C39.9151 32.5406 39.5791 33.8651 38.8459 34.9712C38.1947 35.907 37.4612 36.782 36.6543 37.5858L36.4965 37.7416M18.9852 26.7623C18.1969 26.2469 17.2926 25.9384 16.3552 25.8652C15.5897 25.7964 14.8181 25.8805 14.085 26.1124C13.3518 26.3444 12.6714 26.7197 12.0829 27.2169C11.4944 27.7141 11.0094 28.3235 10.6558 29.0098C10.3021 29.6961 10.0868 30.4459 10.0221 31.2162C9.90795 32.538 10.2379 33.8601 10.9592 34.9709C11.6394 36.1329 12.6288 37.0807 13.8159 37.7073M26.6634 19.0247C28.4101 19.3165 30.0418 20.0907 31.3763 21.2611C32.7108 22.4315 33.6956 23.952 34.2208 25.6527M15.5843 25.6827C16.0977 24.1235 16.9924 22.7193 18.1861 21.5984C19.3798 20.4776 20.8343 19.676 22.4162 19.2678M21.9023 21.8825L21.3431 22.4602M28.3714 24.0564L27.4947 24.938M15.3576 30.517L14.4961 31.3987M29.7166 31.7787L28.976 32.5236M21.7058 29.5745L20.9652 30.3194M36.8659 30.9578L36.3217 31.5051M24.4718 16.0907C23.8745 16.0907 23.3017 16.3292 22.8793 16.7539C22.457 17.1787 22.2197 17.755 22.2197 18.3557C22.2242 18.5825 22.2598 18.8075 22.3255 19.0245C22.4556 19.5036 22.7396 19.9258 23.1333 20.2255C23.527 20.5252 24.0083 20.6857 24.502 20.6816C25.0993 20.6816 25.6722 20.4428 26.0945 20.018C26.5169 19.5932 26.7541 19.0173 26.7541 18.4166C26.7623 18.1115 26.7091 17.8076 26.5977 17.5237C26.4862 17.2398 26.3189 16.9816 26.1058 16.7643C25.8926 16.5471 25.638 16.3754 25.3572 16.2596C25.0764 16.1438 24.7752 16.0865 24.4718 16.0907ZM24.4718 16.0907C24.313 15.2164 24.4352 14.3757 24.767 13.552C25.0989 12.7283 25.6571 12.0165 26.3763 11.5M36.4965 37.7416C36.3096 39.8661 35.7343 41.9421 34.7952 43.8638C34.4654 44.7247 33.9698 45.5115 33.337 46.1793C32.7041 46.8471 31.9463 47.3826 31.1072 47.7551C29.2189 48.3364 27.631 48.5 25.2729 48.5C22.9147 48.5 21.1202 48.3747 19.1363 47.7551C18.2971 47.3826 17.5394 46.8471 16.9065 46.1793C16.2736 45.5115 15.7781 44.7247 15.4483 43.8638C14.3132 41.4933 13.7291 38.8942 13.7403 36.2631C13.7531 35.9017 13.85 35.5482 14.0233 35.2314C14.1965 34.9145 14.4413 34.643 14.7379 34.4386C15.1901 34.2492 15.6804 34.1697 16.1689 34.2067C16.6574 34.2436 17.1303 34.3963 17.5493 34.6517C18.3773 35.1753 19.3371 35.4496 20.3152 35.4422C22.3104 35.1685 23.2626 32.6905 25.4543 32.9946C27.268 33.253 28.2354 35.1989 29.9887 35.4422C30.9712 35.4475 31.9353 35.1734 32.7698 34.6517C33.1841 34.3917 33.6549 34.2363 34.1419 34.1992C34.6288 34.1622 35.1175 34.2443 35.566 34.4386C35.8652 34.6403 36.1119 34.9114 36.2855 35.2288C36.4591 35.5462 36.5545 35.901 36.5636 36.2631C36.5622 36.7576 36.5397 37.2509 36.4965 37.7416Z" stroke="#E95322" stroke-linecap="round" stroke-linejoin="round"/>
</g>
<defs>
<clipPath id="clip0_205_1977">
<rect width="75" height="49" fill="white" transform="translate(49) rotate(90)"/>
</clipPath>
</defs>
</svg>
