<svg width="49" height="75" viewBox="0 0 49 75" fill="none" xmlns="http://www.w3.org/2000/svg">
<g clip-path="url(#clip0_205_1979)">
<path d="M10.1829 66.08H12.0489C12.8929 66.08 13.5869 66.25 14.1309 66.59C14.6789 66.926 15.0849 67.392 15.3489 67.988C15.6129 68.584 15.7449 69.266 15.7449 70.034C15.7449 70.806 15.6129 71.49 15.3489 72.086C15.0849 72.682 14.6809 73.15 14.1369 73.49C13.5929 73.83 12.8969 74 12.0489 74H10.1829V66.08ZM11.2029 67.016V73.064H11.9649C12.5889 73.064 13.0989 72.934 13.4949 72.674C13.8909 72.414 14.1829 72.058 14.3709 71.606C14.5629 71.15 14.6609 70.63 14.6649 70.046C14.6649 69.458 14.5709 68.938 14.3829 68.486C14.1949 68.03 13.9009 67.672 13.5009 67.412C13.1009 67.148 12.5889 67.016 11.9649 67.016H11.2029ZM18.0466 74H17.0086V69.074H18.0466V69.926H18.0166C18.0366 69.822 18.1106 69.692 18.2386 69.536C18.3666 69.38 18.5426 69.24 18.7666 69.116C18.9906 68.992 19.2586 68.93 19.5706 68.93C19.7986 68.93 19.9986 68.962 20.1706 69.026C20.3466 69.086 20.4706 69.146 20.5426 69.206L20.1166 70.07C20.0606 70.014 19.9626 69.958 19.8226 69.902C19.6826 69.842 19.5086 69.812 19.3006 69.812C19.0366 69.812 18.8106 69.894 18.6226 70.058C18.4346 70.222 18.2906 70.42 18.1906 70.652C18.0946 70.88 18.0466 71.092 18.0466 71.288V74ZM21.3299 74V69.074H22.3739V74H21.3299ZM21.8639 67.388C21.6759 67.388 21.5139 67.322 21.3779 67.19C21.2459 67.054 21.1799 66.892 21.1799 66.704C21.1799 66.516 21.2459 66.354 21.3779 66.218C21.5139 66.082 21.6759 66.014 21.8639 66.014C21.9879 66.014 22.1019 66.046 22.2059 66.11C22.3139 66.174 22.3999 66.258 22.4639 66.362C22.5279 66.462 22.5599 66.576 22.5599 66.704C22.5599 66.892 22.4919 67.054 22.3559 67.19C22.2199 67.322 22.0559 67.388 21.8639 67.388ZM26.7238 68.93C27.0478 68.93 27.3618 68.998 27.6658 69.134C27.9738 69.27 28.2258 69.486 28.4218 69.782C28.6218 70.074 28.7218 70.456 28.7218 70.928V74H27.6658V71.132C27.6658 70.644 27.5518 70.29 27.3238 70.07C27.0958 69.846 26.8018 69.734 26.4418 69.734C26.2058 69.734 25.9778 69.802 25.7578 69.938C25.5418 70.07 25.3638 70.254 25.2238 70.49C25.0838 70.722 25.0138 70.986 25.0138 71.282V74H23.9698V69.074H25.0138V69.95C25.0498 69.814 25.1478 69.666 25.3078 69.506C25.4678 69.346 25.6718 69.21 25.9198 69.098C26.1678 68.986 26.4358 68.93 26.7238 68.93ZM33.099 69.074H34.359L31.815 71.42L34.527 74H33.249L30.963 71.816V74H29.919V65.744H30.963V71.024L33.099 69.074ZM37.103 68.93C37.359 68.93 37.597 68.956 37.817 69.008C38.041 69.06 38.233 69.122 38.393 69.194C38.557 69.266 38.673 69.33 38.741 69.386L38.327 70.046C38.247 69.974 38.103 69.894 37.895 69.806C37.687 69.714 37.455 69.668 37.199 69.668C36.919 69.668 36.681 69.724 36.485 69.836C36.289 69.944 36.191 70.102 36.191 70.31C36.191 70.518 36.291 70.684 36.491 70.808C36.695 70.928 36.967 71.028 37.307 71.108C37.579 71.172 37.833 71.258 38.069 71.366C38.309 71.474 38.503 71.624 38.651 71.816C38.799 72.004 38.873 72.256 38.873 72.572C38.873 72.86 38.813 73.106 38.693 73.31C38.573 73.51 38.411 73.672 38.207 73.796C38.003 73.916 37.775 74.004 37.523 74.06C37.271 74.116 37.015 74.144 36.755 74.144C36.451 74.144 36.177 74.112 35.933 74.048C35.689 73.988 35.483 73.916 35.315 73.832C35.151 73.744 35.031 73.668 34.955 73.604L35.369 72.86C35.473 72.96 35.643 73.066 35.879 73.178C36.119 73.29 36.391 73.346 36.695 73.346C37.031 73.346 37.303 73.276 37.511 73.136C37.719 72.992 37.823 72.806 37.823 72.578C37.823 72.406 37.773 72.268 37.673 72.164C37.573 72.06 37.439 71.976 37.271 71.912C37.103 71.848 36.919 71.792 36.719 71.744C36.527 71.7 36.339 71.642 36.155 71.57C35.975 71.498 35.809 71.406 35.657 71.294C35.509 71.178 35.391 71.038 35.303 70.874C35.215 70.706 35.171 70.51 35.171 70.286C35.171 70.002 35.261 69.76 35.441 69.56C35.621 69.356 35.857 69.2 36.149 69.092C36.441 68.984 36.759 68.93 37.103 68.93Z" fill="#391713"/>
<rect width="49" height="62" rx="24.5" fill="#F3E9B5"/>
<path d="M32.2251 21.0801C33.5593 26.5309 33.3394 32.922 30.4803 37.741C29.4393 39.504 30.5683 41.37 31.1694 43.3387C31.58 44.661 32.3131 46.0567 31.8292 47.3496C31.5913 47.9399 31.1877 48.4484 30.6672 48.8134C30.1467 49.1785 29.5317 49.3845 28.8968 49.4064C27.2178 49.5312 25.5319 49.5312 23.853 49.4064C16.6978 48.9656 23.9703 41.2083 21.9176 37.7557C20.1852 34.5348 19.302 30.9243 19.3517 27.2658C19.3517 25.2236 19.1171 22.0941 20.7006 20.522C23.0172 18.2301 27.152 18.2154 29.7765 19.4495M19.6596 30.6005C19.8062 32.4076 21.8589 32.6722 23.2518 32.2462C24.6447 31.8201 26.023 30.6152 27.6505 30.292C28.6183 30.0555 29.6387 30.1745 30.5264 30.6274C31.4142 31.0803 32.1105 31.8372 32.489 32.7605M26.7268 35.6252L35.1429 12.5M22.8413 46.409C25.0269 47.0981 27.371 47.0981 29.5566 46.409M19.293 27.427C18.9986 27.4862 18.699 27.5158 18.3987 27.5153C17.2321 27.5153 16.1132 27.0509 15.2883 26.2244C14.4634 25.3978 14 24.2767 14 23.1077C14 21.9387 14.4634 20.8176 15.2883 19.991C16.1132 19.1644 17.2321 18.7001 18.3987 18.7001C19.5652 18.7001 20.6841 19.1644 21.509 19.991C22.3339 20.8176 22.7973 21.9387 22.7973 23.1077M19.7329 22.3878C21.1856 23.0575 22.7595 23.4224 24.3581 23.4603C25.9567 23.4982 27.5461 23.2081 29.0287 22.608" stroke="#E95322" stroke-linecap="round" stroke-linejoin="round"/>
</g>
<defs>
<clipPath id="clip0_205_1979">
<rect width="75" height="49" fill="white" transform="translate(49) rotate(90)"/>
</clipPath>
</defs>
</svg>
