<svg width="48" height="43" viewBox="0 0 48 43" fill="none" xmlns="http://www.w3.org/2000/svg">
<path d="M24 37.6251L21.1 35.296C17.7333 32.5786 14.95 30.2345 12.75 28.2637C10.55 26.2928 8.8 24.531 7.5 22.9783C6.2 21.3956 5.28333 19.9474 4.75 18.6335C4.25 17.3196 4 15.9758 4 14.6022C4 11.7953 5.05 9.45117 7.15 7.56992C9.25 5.68867 11.8667 4.74805 15 4.74805C16.7333 4.74805 18.3833 5.07652 19.95 5.73346C21.5167 6.39041 22.8667 7.3161 24 8.51055C25.1333 7.3161 26.4833 6.39041 28.05 5.73346C29.6167 5.07652 31.2667 4.74805 33 4.74805C36.1333 4.74805 38.75 5.68867 40.85 7.56992C42.95 9.45117 44 11.7953 44 14.6022C44 15.9758 43.7333 17.3196 43.2 18.6335C42.7 19.9474 41.8 21.3956 40.5 22.9783C39.2 24.531 37.45 26.2928 35.25 28.2637C33.05 30.2345 30.2667 32.5786 26.9 35.296L24 37.6251ZM24 32.7876C27.2 30.2196 29.8333 28.0248 31.9 26.2033C33.9667 24.3519 35.6 22.7543 36.8 21.4105C38 20.0369 38.8333 18.8276 39.3 17.7824C39.7667 16.7074 40 15.6474 40 14.6022C40 12.8105 39.3333 11.3175 38 10.123C36.6667 8.9286 35 8.33138 33 8.33138C31.4333 8.33138 29.9833 8.73451 28.65 9.54076C27.3167 10.3171 26.4 11.3175 25.9 12.5418H22.1C21.6 11.3175 20.6833 10.3171 19.35 9.54076C18.0167 8.73451 16.5667 8.33138 15 8.33138C13 8.33138 11.3333 8.9286 10 10.123C8.66667 11.3175 8 12.8105 8 14.6022C8 15.6474 8.23333 16.7074 8.7 17.7824C9.16667 18.8276 10 20.0369 11.2 21.4105C12.4 22.7543 14.0333 24.3519 16.1 26.2033C18.1667 28.0248 20.8 30.2196 24 32.7876Z" fill="#FF3B30"/>
</svg>
