<svg width="49" height="75" viewBox="0 0 49 75" fill="none" xmlns="http://www.w3.org/2000/svg">
<g clip-path="url(#clip0_205_1976)">
<path d="M20.5644 66.08V74H19.5444V68.282L19.5984 67.406L19.3824 68.372L17.4744 73.55H16.4604L14.5524 68.372L14.3424 67.406L14.3904 68.282V74H13.3644V66.08H14.7324L16.8924 72.296L16.9644 72.698L17.0424 72.296L19.2084 66.08H20.5644ZM22.866 71.75C22.87 72.046 22.934 72.316 23.058 72.56C23.182 72.804 23.366 72.998 23.61 73.142C23.858 73.286 24.162 73.358 24.522 73.358C24.826 73.358 25.084 73.314 25.296 73.226C25.512 73.134 25.688 73.026 25.824 72.902C25.96 72.774 26.058 72.66 26.118 72.56L26.628 73.19C26.496 73.382 26.334 73.55 26.142 73.694C25.954 73.838 25.724 73.948 25.452 74.024C25.18 74.104 24.848 74.144 24.456 74.144C23.928 74.144 23.47 74.032 23.082 73.808C22.698 73.58 22.402 73.266 22.194 72.866C21.986 72.462 21.882 72 21.882 71.48C21.882 71 21.98 70.568 22.176 70.184C22.372 69.796 22.656 69.49 23.028 69.266C23.404 69.042 23.856 68.93 24.384 68.93C24.868 68.93 25.288 69.032 25.644 69.236C26.004 69.436 26.282 69.72 26.478 70.088C26.678 70.456 26.778 70.896 26.778 71.408C26.778 71.44 26.776 71.498 26.772 71.582C26.768 71.662 26.764 71.718 26.76 71.75H22.866ZM25.782 70.964C25.778 70.8 25.73 70.62 25.638 70.424C25.55 70.228 25.406 70.06 25.206 69.92C25.006 69.78 24.736 69.71 24.396 69.71C24.044 69.71 23.76 69.778 23.544 69.914C23.332 70.05 23.176 70.216 23.076 70.412C22.976 70.604 22.918 70.788 22.902 70.964H25.782ZM31.8908 74V73.04C31.8588 73.14 31.7648 73.278 31.6088 73.454C31.4568 73.63 31.2468 73.79 30.9788 73.934C30.7148 74.074 30.4028 74.144 30.0428 74.144C29.5868 74.144 29.1728 74.036 28.8008 73.82C28.4328 73.604 28.1388 73.302 27.9188 72.914C27.7028 72.522 27.5948 72.064 27.5948 71.54C27.5948 71.016 27.7028 70.56 27.9188 70.172C28.1388 69.78 28.4328 69.476 28.8008 69.26C29.1728 69.04 29.5868 68.93 30.0428 68.93C30.3988 68.93 30.7068 68.994 30.9668 69.122C31.2308 69.25 31.4408 69.398 31.5968 69.566C31.7568 69.734 31.8508 69.878 31.8788 69.998V69.074H32.9108V74H31.8908ZM28.6268 71.54C28.6268 71.896 28.7048 72.204 28.8608 72.464C29.0168 72.724 29.2188 72.926 29.4668 73.07C29.7188 73.21 29.9868 73.28 30.2708 73.28C30.5748 73.28 30.8468 73.208 31.0868 73.064C31.3268 72.92 31.5168 72.718 31.6568 72.458C31.7968 72.194 31.8668 71.888 31.8668 71.54C31.8668 71.192 31.7968 70.888 31.6568 70.628C31.5168 70.364 31.3268 70.16 31.0868 70.016C30.8468 69.868 30.5748 69.794 30.2708 69.794C29.9868 69.794 29.7188 69.866 29.4668 70.01C29.2188 70.154 29.0168 70.356 28.8608 70.616C28.7048 70.876 28.6268 71.184 28.6268 71.54ZM35.3918 74H34.3418V65.744H35.3918V74Z" fill="#391713"/>
<rect width="49" height="62" rx="24.5" fill="#F3E9B5"/>
<path d="M19.9024 37.1019C19.0929 39.1432 18.4755 41.2631 18.0589 43.4314C17.7671 45.0502 17.5367 47.7215 18.8731 48.8871C19.141 49.1579 19.4724 49.3486 19.8334 49.4396C20.1945 49.5306 20.572 49.5186 20.9271 49.4048C21.2823 49.2911 21.6022 49.0796 21.8541 48.7922C22.106 48.5049 22.2807 48.1523 22.3602 47.7702C22.5599 46.378 22.1758 40.1776 22.1298 38.5749C22.1298 37.5227 22.1298 36.4542 22.1298 35.3372C22.1298 29.3475 21.9301 19.3758 21.9147 13.3861C21.9022 13.2047 21.8408 13.0305 21.7377 12.8846C21.6346 12.7387 21.4941 12.6271 21.3327 12.5625C21.1713 12.4979 20.9958 12.4829 20.8268 12.5198C20.6577 12.5567 20.5023 12.6439 20.3786 12.7708C16.3846 17.8701 14.6794 24.5075 17.1526 30.7886C17.5703 31.9266 18.2492 32.9376 19.1285 33.7314C20.0078 34.5253 21.06 35.0769 22.1912 35.3372M28.6585 28.2793C28.4741 31.776 27.7675 35.2078 27.3066 38.6721C26.8921 40.8899 26.6914 43.146 26.7075 45.4063C26.8304 47.1385 27.4296 49.4696 29.4573 49.4858C30.013 49.5035 30.5569 49.3146 30.9934 48.9519C31.4822 48.4318 31.8182 47.7739 31.9612 47.0575C32.2053 45.9988 32.2934 44.9068 32.2223 43.8199C32.2223 42.0877 31.8383 40.4043 31.6079 38.7045C31.147 35.2402 30.4404 31.8084 30.2561 28.3117M28.0747 13.1268V21.221M30.9012 21.1724V13.0782M25.5708 13.1268V24.216C25.5748 25.3009 25.9856 26.3403 26.7136 27.1075C27.4416 27.8746 28.4278 28.3074 29.4573 28.3117C30.4868 28.3074 31.473 27.8746 32.201 27.1075C32.9289 26.3403 33.3397 25.3009 33.3437 24.216V13.1268" stroke="#E95322" stroke-linecap="round" stroke-linejoin="round"/>
</g>
<defs>
<clipPath id="clip0_205_1976">
<rect width="75" height="49" fill="white" transform="translate(49) rotate(90)"/>
</clipPath>
</defs>
</svg>
