<svg width="49" height="75" viewBox="0 0 49 75" fill="none" xmlns="http://www.w3.org/2000/svg">
<g clip-path="url(#clip0_205_1980)">
<path d="M10.7217 65.936C11.1777 65.936 11.5697 65.988 11.8977 66.092C12.2297 66.196 12.4897 66.306 12.6777 66.422C12.8697 66.538 12.9837 66.614 13.0197 66.65L12.4917 67.496C12.4317 67.444 12.3257 67.37 12.1737 67.274C12.0217 67.174 11.8317 67.086 11.6037 67.01C11.3757 66.93 11.1157 66.89 10.8237 66.89C10.3717 66.89 10.0137 66.982 9.7497 67.166C9.4897 67.346 9.3597 67.602 9.3597 67.934C9.3597 68.158 9.4277 68.356 9.5637 68.528C9.7037 68.696 9.8997 68.85 10.1517 68.99C10.4037 69.13 10.6977 69.274 11.0337 69.422C11.3097 69.538 11.5797 69.67 11.8437 69.818C12.1117 69.966 12.3537 70.14 12.5697 70.34C12.7897 70.54 12.9637 70.772 13.0917 71.036C13.2237 71.3 13.2897 71.604 13.2897 71.948C13.2897 72.288 13.2197 72.594 13.0797 72.866C12.9437 73.138 12.7497 73.37 12.4977 73.562C12.2497 73.75 11.9597 73.894 11.6277 73.994C11.2957 74.094 10.9377 74.144 10.5537 74.144C10.0697 74.144 9.6317 74.084 9.2397 73.964C8.8517 73.844 8.5377 73.718 8.2977 73.586C8.0617 73.454 7.9257 73.372 7.8897 73.34L8.4477 72.458C8.4957 72.498 8.5837 72.558 8.7117 72.638C8.8397 72.714 8.9977 72.794 9.1857 72.878C9.3737 72.962 9.5857 73.034 9.8217 73.094C10.0577 73.15 10.3097 73.178 10.5777 73.178C11.1137 73.178 11.5197 73.058 11.7957 72.818C12.0717 72.578 12.2097 72.27 12.2097 71.894C12.2097 71.606 12.1217 71.358 11.9457 71.15C11.7697 70.942 11.5357 70.756 11.2437 70.592C10.9517 70.428 10.6297 70.27 10.2777 70.118C9.9177 69.954 9.5877 69.774 9.2877 69.578C8.9877 69.382 8.7457 69.148 8.5617 68.876C8.3817 68.6 8.2917 68.268 8.2917 67.88C8.2917 67.496 8.3997 67.158 8.6157 66.866C8.8357 66.574 9.1297 66.346 9.4977 66.182C9.8697 66.018 10.2777 65.936 10.7217 65.936ZM17.3195 68.93C17.6435 68.93 17.9575 68.998 18.2615 69.134C18.5695 69.27 18.8215 69.486 19.0175 69.782C19.2175 70.074 19.3175 70.456 19.3175 70.928V74H18.2615V71.132C18.2615 70.644 18.1475 70.29 17.9195 70.07C17.6915 69.846 17.3975 69.734 17.0375 69.734C16.8015 69.734 16.5735 69.802 16.3535 69.938C16.1375 70.07 15.9595 70.254 15.8195 70.49C15.6795 70.722 15.6095 70.986 15.6095 71.282V74H14.5655V69.074H15.6095V69.95C15.6455 69.814 15.7435 69.666 15.9035 69.506C16.0635 69.346 16.2675 69.21 16.5155 69.098C16.7635 68.986 17.0315 68.93 17.3195 68.93ZM24.6427 74V73.04C24.6107 73.14 24.5167 73.278 24.3607 73.454C24.2087 73.63 23.9987 73.79 23.7307 73.934C23.4667 74.074 23.1547 74.144 22.7947 74.144C22.3387 74.144 21.9247 74.036 21.5527 73.82C21.1847 73.604 20.8907 73.302 20.6707 72.914C20.4547 72.522 20.3467 72.064 20.3467 71.54C20.3467 71.016 20.4547 70.56 20.6707 70.172C20.8907 69.78 21.1847 69.476 21.5527 69.26C21.9247 69.04 22.3387 68.93 22.7947 68.93C23.1507 68.93 23.4587 68.994 23.7187 69.122C23.9827 69.25 24.1927 69.398 24.3487 69.566C24.5087 69.734 24.6027 69.878 24.6307 69.998V69.074H25.6627V74H24.6427ZM21.3787 71.54C21.3787 71.896 21.4567 72.204 21.6127 72.464C21.7687 72.724 21.9707 72.926 22.2187 73.07C22.4707 73.21 22.7387 73.28 23.0227 73.28C23.3267 73.28 23.5987 73.208 23.8387 73.064C24.0787 72.92 24.2687 72.718 24.4087 72.458C24.5487 72.194 24.6187 71.888 24.6187 71.54C24.6187 71.192 24.5487 70.888 24.4087 70.628C24.2687 70.364 24.0787 70.16 23.8387 70.016C23.5987 69.868 23.3267 69.794 23.0227 69.794C22.7387 69.794 22.4707 69.866 22.2187 70.01C21.9707 70.154 21.7687 70.356 21.6127 70.616C21.4567 70.876 21.3787 71.184 21.3787 71.54ZM29.3797 73.28C29.6917 73.28 29.9437 73.23 30.1357 73.13C30.3277 73.03 30.4477 72.958 30.4957 72.914L31.0057 73.664C30.9657 73.7 30.8697 73.758 30.7177 73.838C30.5697 73.914 30.3777 73.984 30.1417 74.048C29.9097 74.112 29.6457 74.144 29.3497 74.144C28.8977 74.144 28.4777 74.044 28.0897 73.844C27.7017 73.64 27.3877 73.344 27.1477 72.956C26.9117 72.568 26.7937 72.094 26.7937 71.534C26.7937 70.97 26.9117 70.496 27.1477 70.112C27.3877 69.724 27.7017 69.43 28.0897 69.23C28.4777 69.03 28.8977 68.93 29.3497 68.93C29.6417 68.93 29.9017 68.966 30.1297 69.038C30.3577 69.106 30.5457 69.182 30.6937 69.266C30.8417 69.35 30.9397 69.414 30.9877 69.458L30.4717 70.208C30.4397 70.176 30.3777 70.128 30.2857 70.064C30.1977 69.996 30.0777 69.934 29.9257 69.878C29.7737 69.822 29.5917 69.794 29.3797 69.794C29.1237 69.794 28.8737 69.864 28.6297 70.004C28.3897 70.14 28.1917 70.338 28.0357 70.598C27.8797 70.858 27.8017 71.17 27.8017 71.534C27.8017 71.898 27.8797 72.212 28.0357 72.476C28.1917 72.736 28.3897 72.936 28.6297 73.076C28.8737 73.212 29.1237 73.28 29.3797 73.28ZM35.0502 69.074H36.3102L33.7662 71.42L36.4782 74H35.2002L32.9142 71.816V74H31.8702V65.744H32.9142V71.024L35.0502 69.074ZM39.0542 68.93C39.3102 68.93 39.5482 68.956 39.7682 69.008C39.9922 69.06 40.1842 69.122 40.3442 69.194C40.5082 69.266 40.6242 69.33 40.6922 69.386L40.2782 70.046C40.1982 69.974 40.0542 69.894 39.8462 69.806C39.6382 69.714 39.4062 69.668 39.1502 69.668C38.8702 69.668 38.6322 69.724 38.4362 69.836C38.2402 69.944 38.1422 70.102 38.1422 70.31C38.1422 70.518 38.2422 70.684 38.4422 70.808C38.6462 70.928 38.9182 71.028 39.2582 71.108C39.5302 71.172 39.7842 71.258 40.0202 71.366C40.2602 71.474 40.4542 71.624 40.6022 71.816C40.7502 72.004 40.8242 72.256 40.8242 72.572C40.8242 72.86 40.7642 73.106 40.6442 73.31C40.5242 73.51 40.3622 73.672 40.1582 73.796C39.9542 73.916 39.7262 74.004 39.4742 74.06C39.2222 74.116 38.9662 74.144 38.7062 74.144C38.4022 74.144 38.1282 74.112 37.8842 74.048C37.6402 73.988 37.4342 73.916 37.2662 73.832C37.1022 73.744 36.9822 73.668 36.9062 73.604L37.3202 72.86C37.4242 72.96 37.5942 73.066 37.8302 73.178C38.0702 73.29 38.3422 73.346 38.6462 73.346C38.9822 73.346 39.2542 73.276 39.4622 73.136C39.6702 72.992 39.7742 72.806 39.7742 72.578C39.7742 72.406 39.7242 72.268 39.6242 72.164C39.5242 72.06 39.3902 71.976 39.2222 71.912C39.0542 71.848 38.8702 71.792 38.6702 71.744C38.4782 71.7 38.2902 71.642 38.1062 71.57C37.9262 71.498 37.7602 71.406 37.6082 71.294C37.4602 71.178 37.3422 71.038 37.2542 70.874C37.1662 70.706 37.1222 70.51 37.1222 70.286C37.1222 70.002 37.2122 69.76 37.3922 69.56C37.5722 69.356 37.8082 69.2 38.1002 69.092C38.3922 68.984 38.7102 68.93 39.0542 68.93Z" fill="#391713"/>
<rect width="49" height="62" rx="24.5" fill="#F3E9B5"/>
<path d="M14.8947 32.0698C16.2586 32.4956 17.6635 32.7872 19.088 32.9405C22.0956 33.2574 25.1252 33.3321 28.1456 33.1635C32.0842 33.2618 35.9717 32.2859 39.3627 30.3482C39.7729 30.6216 40.1116 30.9835 40.3518 31.4053C40.592 31.8271 40.7271 32.2973 40.7465 32.7783C41.0279 36.0209 40.39 39.2766 38.9014 42.1957M28.8375 48.8181C28.2295 48.8181 27.6005 48.9595 26.9715 49C25.8602 49 24.749 49 23.6378 49C18.7945 48.8582 13.5948 47.4811 11.1837 42.9245C9.08705 39.1374 8.3532 33.8925 10.6386 30.0649M23.2395 30.9357C23.5214 30.6497 23.7187 30.2959 23.8109 29.9112C23.9031 29.5265 23.8868 29.1248 23.7636 28.7483C23.6332 28.3779 23.4129 28.0431 23.1211 27.7718C22.8293 27.5005 22.4745 27.3006 22.0863 27.1889C20.6844 27.0193 19.2655 27.3354 18.0817 28.0803C16.3415 28.7892 14.2868 30.3483 12.3578 30.3888C8.16454 30.3888 6.06792 21.8829 10.3661 20.6071C10.826 20.46 11.3227 20.4593 11.7831 20.6051C12.2435 20.7509 12.6434 21.0358 12.9239 21.4174C13.7626 22.6933 13.511 24.1714 14.8529 25.2245C15.4789 25.7016 16.1893 26.0654 16.9495 26.2979C18.2495 26.7312 19.6031 26.9971 20.9751 27.088M35.8822 26.1559C34.564 26.2176 33.2434 26.095 31.9615 25.7915C31.1815 25.6251 30.4369 25.3306 29.7601 24.9209C28.2924 23.969 28.3763 22.4297 27.3908 21.2146C27.0569 20.8539 26.6132 20.605 26.1235 20.5032C25.6338 20.4013 25.1232 20.4516 24.6652 20.6475C20.4719 22.3892 23.4282 30.9153 27.7892 30.4293C29.7391 30.2065 31.668 28.4042 33.3662 27.4929C34.5037 26.6207 35.9187 26.1553 37.3708 26.1762C37.7798 26.2495 38.1647 26.4165 38.4931 26.6632C38.8214 26.9099 39.0837 27.2294 39.2579 27.5942C39.4269 27.967 39.4869 28.3774 39.4314 28.7809C39.376 29.1843 39.2072 29.5651 38.9433 29.8824C38.408 30.5689 37.7093 31.1207 36.9064 31.4908C36.1034 31.861 35.2199 32.0387 34.3307 32.009C32.677 31.7767 31.1772 30.9435 30.1374 29.6797M37.245 42.6006C35.8867 43.0155 34.4756 43.2474 33.0517 43.2894C32.2704 43.3208 31.4895 43.2176 30.7454 42.9853C29.11 42.4385 28.8165 40.9602 27.5795 40.0692C27.1861 39.7941 26.7128 39.6459 26.2271 39.6459C25.7414 39.6459 25.2682 39.7941 24.8748 40.0692C21.3524 42.7221 26.3006 50.0734 30.2842 48.5748C32.0663 47.9065 33.4082 45.7395 34.792 44.5244C35.7774 43.6334 36.7838 42.4991 38.2304 42.3371C38.6284 42.3266 39.0238 42.4033 39.3868 42.5611C39.7499 42.7189 40.0713 42.9541 40.3271 43.2488C40.5745 43.5627 40.7302 43.9349 40.7782 44.3267C40.8261 44.7185 40.7645 45.1152 40.5997 45.4762C40.264 46.2519 39.7402 46.9384 39.0725 47.4777C38.4047 48.0169 37.6126 48.3931 36.7628 48.5748C35.9523 48.6775 35.1286 48.6233 34.3402 48.4146C33.5517 48.2059 32.8143 47.8474 32.1712 47.36M22.1282 14.0657C21.696 15.1488 21.1027 16.1653 20.367 17.0832C19.9355 17.6419 19.4113 18.1282 18.8155 18.5215C17.4737 19.3316 16.2576 18.6835 14.8738 19.0278C14.4281 19.1578 14.0399 19.427 13.7703 19.7937C13.5008 20.1603 13.3653 20.6037 13.3851 21.053C13.2593 25.1033 21.3944 25.9131 22.6104 22.2475C22.8286 20.3872 22.7223 18.5047 22.2959 16.6783C21.9976 15.4327 22.1454 14.126 22.7153 12.972C22.9252 12.6749 23.2064 12.4313 23.535 12.262C23.8636 12.0928 24.2298 12.0028 24.6022 12C24.9714 12.0192 25.3288 12.1327 25.6381 12.3283C25.9474 12.5239 26.1976 12.7948 26.3634 13.1139C26.725 13.8118 26.9134 14.5817 26.9134 15.3621C26.9134 16.1425 26.725 16.9119 26.3634 17.6098C25.5826 18.8708 24.3159 19.7812 22.841 20.1412" stroke="#E95322" stroke-linecap="round" stroke-linejoin="round"/>
</g>
<defs>
<clipPath id="clip0_205_1980">
<rect width="75" height="49" fill="white" transform="translate(49) rotate(90)"/>
</clipPath>
</defs>
</svg>
